<svg xmlns="http://www.w3.org/2000/svg" version="1.1" xmlns:xlink="http://www.w3.org/1999/xlink" viewBox="0 0 10.712653125709867 9.969422308944923"><g transform="matrix(0.8526026844178517,0,0,0.8526026844178517,1.5242411998678045,6.728662519423329)"><g transform="matrix(1,0,0,1,0,0)" clip-path="url(#SvgjsClipPath113241)"><g clip-path="url(#SvgjsClipPath113239dab47b2e-deb3-4e01-8b43-1a73d74d5f94)"><path d=" M 3.411753872761547 -3.3137455516430956 L 2.888490399832404 -3.3137455516430956 L 2.8722399814184554 -3.2974951332291473 L 5.5394753237612075 -0.583675258099742 L 6.068155602828333 -0.583675258099742 L 3.359752533836912 -3.262827573946057 Z" fill="#3a505e" transform="matrix(1,0,0,1,0,0)" fill-rule="nonzero"></path></g><g clip-path="url(#SvgjsClipPath113239dab47b2e-deb3-4e01-8b43-1a73d74d5f94)"><path d=" M 6.086572743697475 -5.940896528564775 L 5.5394753237612075 -5.940896528564775 L 2.888490399832404 -3.3137455516430956 L 3.411753872761547 -3.3137455516430956 Z" fill="#3f6072" transform="matrix(1,0,0,1,0,0)" fill-rule="nonzero"></path></g><g clip-path="url(#SvgjsClipPath113239dab47b2e-deb3-4e01-8b43-1a73d74d5f94)"><path d=" M 4.509198796316872 -3.2974951332291473 L 4.525449214730819 -3.3137455516430956 L 4.065020693002278 -3.3137455516430956 L 4.014102715305239 -3.262827573946057 L 6.701921920972326 -0.583675258099742 L 7.176434138659623 -0.583675258099742 Z" fill="#3a505e" transform="matrix(1,0,0,1,0,0)" fill-rule="nonzero"></path></g><g clip-path="url(#SvgjsClipPath113239dab47b2e-deb3-4e01-8b43-1a73d74d5f94)"><path d=" M 4.525449214730819 -3.3137455516430956 L 7.176434138659623 -5.940896528564775 L 6.677004612737605 -5.940896528564775 L 4.065020693002278 -3.3137455516430956 Z" fill="#3f6072" transform="matrix(1,0,0,1,0,0)" fill-rule="nonzero"></path></g><g clip-path="url(#SvgjsClipPath113239dab47b2e-deb3-4e01-8b43-1a73d74d5f94)"><path d=" M 4.065020693002278 -3.3137455516430956 L 3.411753872761547 -3.3137455516430956 L 3.359752533836912 -3.262827573946057 L 6.068155602828333 -0.583675258099742 L 6.1992423113675175 -0.45367191078815416 L 6.406164305838462 -0.25 L 7.037763901527263 -0.25 L 6.83300862951151 -0.45367191078815416 L 6.701921920972326 -0.583675258099742 L 4.014102715305239 -3.262827573946057 Z" fill="#ff8b00" transform="matrix(1,0,0,1,0,0)" fill-rule="nonzero"></path></g><g clip-path="url(#SvgjsClipPath113239dab47b2e-deb3-4e01-8b43-1a73d74d5f94)"><path d=" M 4.065020693002278 -3.3137455516430956 L 6.677004612737605 -5.940896528564775 L 6.807007960049193 -6.071983237103959 L 6.903427109305287 -6.168402386360054 L 6.3184120464031395 -6.168402386360054 L 6.219826174691853 -6.071983237103959 L 6.086572743697475 -5.940896528564775 L 3.411753872761547 -3.3137455516430956 Z" fill="#ff9912" transform="matrix(1,0,0,1,0,0)" fill-rule="nonzero"></path></g><g clip-path="url(#SvgjsClipPath113239dab47b2e-deb3-4e01-8b43-1a73d74d5f94)"><path d=" M 6.200325672595114 -4.790366904857219 L 5.908901502371638 -4.502192818316531 C 6.130990554028934 -4.177184450037561 6.262077262568119 -3.785007685647603 6.262077262568119 -3.361413445657345 C 6.262077262568119 -3.3397462211054134 6.262077262568119 -3.3180789965534823 6.260993901340522 -3.296411772001551 L 4.716120790787816 -3.296411772001551 L 5.02379537942524 -2.9941539895021085 L 6.228493064512625 -2.9941539895021085 L 6.638003608544128 -2.9941539895021085 L 6.666171000461638 -2.9941539895021085 L 6.666171000461638 -3.296411772001551 L 6.665087639234042 -3.296411772001551 C 6.666171000461638 -3.3180789965534823 6.666171000461638 -3.3397462211054134 6.666171000461638 -3.361413445657345 C 6.666171000461638 -3.8944271696348562 6.492833204046188 -4.388439889418891 6.200325672595114 -4.790366904857219 Z" fill="#3a505e" transform="matrix(1,0,0,1,0,0)" fill-rule="nonzero"></path></g><g clip-path="url(#SvgjsClipPath113239dab47b2e-deb3-4e01-8b43-1a73d74d5f94)"><path d=" M 5.84173310626065 -2.1285483686524502 L 6.126657109118546 -1.8382075596565688 C 6.327078936223912 -2.086297280776183 6.479832869315029 -2.374471367316871 6.57083521243314 -2.6886461233198755 L 6.146157611215284 -2.6886461233198755 C 6.074655770193912 -2.484974212531721 5.971736453572238 -2.2964693589299183 5.84173310626065 -2.1285483686524502 Z" fill="#3a505e" transform="matrix(1,0,0,1,0,0)" fill-rule="nonzero"></path></g><g clip-path="url(#SvgjsClipPath113239dab47b2e-deb3-4e01-8b43-1a73d74d5f94)"><path d=" M 4.239441850645324 -1.3387780337345507 C 3.1235797862208594 -1.3387780337345507 2.2168064387225317 -2.2466347424604756 2.2168064387225317 -3.3614134456573446 C 2.2168064387225317 -3.624670223963311 2.2677244164195702 -3.877093389993311 2.3598101207652786 -4.108932692698977 C 2.2796413899231323 -4.293104101390393 2.217889799950128 -4.468608620261037 2.170221905935879 -4.62894608194533 C 1.943799409368196 -4.259519903334899 1.8127127008290116 -3.8261754122962723 1.8127127008290116 -3.3624968068849412 C 1.8127127008290116 -2.024545690803179 2.9014907345635628 -0.9357676570686273 4.239441850645324 -0.9357676570686273 C 4.47453123703378 -0.9357676570686273 4.702037094829059 -0.9693518551241214 4.917625979120777 -1.032186806324721 L 4.586117443476227 -1.3701955093348506 C 4.473447875806184 -1.3485282847829207 4.357528224453351 -1.3387780337345507 4.239441850645324 -1.3387780337345507 Z" fill="#426575" transform="matrix(1,0,0,1,0,0)" fill-rule="nonzero"></path></g><g clip-path="url(#SvgjsClipPath113239dab47b2e-deb3-4e01-8b43-1a73d74d5f94)"><path d=" M 4.239441850645324 -5.3840488575801375 C 4.408446202150389 -5.3840488575801375 4.573117108745068 -5.3634649942558035 4.730204486746571 -5.32338062883473 L 5.056296216253138 -5.646222274658507 C 4.800622966540347 -5.7372246177766195 4.525449214730819 -5.788142595473658 4.239441850645324 -5.788142595473658 C 3.3651693399748943 -5.788142595473658 2.597066229608927 -5.32338062883473 2.170221905935879 -4.627862720717733 C 2.217889799950128 -4.468608620261038 2.2796413899231323 -4.292020740162797 2.3598101207652786 -4.10784933147138 C 2.657734458354335 -4.855368578513013 3.3879199257544226 -5.3840488575801375 4.239441850645324 -5.3840488575801375 Z" fill="#3a505e" transform="matrix(1,0,0,1,0,0)" fill-rule="nonzero"></path></g></g><g><path d=" M 1.9580822088068173 0.05249999999999977 L 1.9580822088068173 0.28649999999999987 L 1.6760822088068172 0.28649999999999987 L 1.6760822088068172 1.1099999999999999 L 1.3820822088068172 1.1099999999999999 L 1.3820822088068172 0.28649999999999987 L 1.1030822088068173 0.28649999999999987 L 1.1030822088068173 0.05249999999999977 L 1.9580822088068173 0.05249999999999977 M 2.480088068181817 0.3029999999999998 Q 2.550588068181817 0.2609999999999999 2.6315880681818173 0.2609999999999999 L 2.6315880681818173 0.5744999999999999 L 2.5490880681818173 0.5744999999999999 Q 2.4530880681818172 0.5744999999999999 2.4065880681818173 0.6119999999999999 Q 2.3600880681818173 0.6494999999999999 2.3600880681818173 0.7424999999999999 L 2.3600880681818173 1.1099999999999999 L 2.0660880681818172 1.1099999999999999 L 2.0660880681818172 0.26849999999999985 L 2.3600880681818173 0.26849999999999985 L 2.3600880681818173 0.4169999999999998 Q 2.409588068181817 0.34499999999999986 2.480088068181817 0.3029999999999998 M 2.9008702947443172 1.0679999999999998 Q 2.801120294744317 1.0154999999999998 2.744120294744317 0.9179999999999999 Q 2.687120294744317 0.8204999999999999 2.687120294744317 0.6884999999999999 Q 2.687120294744317 0.5579999999999998 2.744870294744317 0.4604999999999999 Q 2.802620294744317 0.3629999999999999 2.9023702947443173 0.3104999999999999 Q 3.002120294744317 0.2579999999999999 3.128120294744317 0.2579999999999999 Q 3.2541202947443173 0.2579999999999999 3.353870294744317 0.3104999999999999 Q 3.453620294744317 0.3629999999999999 3.5113702947443173 0.4604999999999999 Q 3.5691202947443172 0.5579999999999998 3.5691202947443172 0.6884999999999999 Q 3.5691202947443172 0.819 3.5113702947443173 0.9172499999999999 Q 3.453620294744317 1.0154999999999998 3.353120294744317 1.0679999999999998 Q 3.2526202947443172 1.1204999999999998 3.126620294744317 1.1204999999999998 Q 3.000620294744317 1.1204999999999998 2.9008702947443172 1.0679999999999998 M 3.2293702947443172 0.8197499999999999 Q 3.270620294744317 0.7739999999999998 3.270620294744317 0.6884999999999999 Q 3.270620294744317 0.6029999999999999 3.2293702947443172 0.5579999999999998 Q 3.188120294744317 0.5129999999999999 3.128120294744317 0.5129999999999999 Q 3.068120294744317 0.5129999999999999 3.027620294744317 0.5579999999999998 Q 2.987120294744317 0.6029999999999999 2.987120294744317 0.6884999999999999 Q 2.987120294744317 0.7754999999999999 3.026120294744317 0.8204999999999999 Q 3.0651202947443172 0.8654999999999999 3.126620294744317 0.8654999999999999 Q 3.188120294744317 0.8654999999999999 3.2293702947443172 0.8197499999999999 M 3.853349786931817 1.0679999999999998 Q 3.753599786931817 1.0154999999999998 3.696599786931817 0.9179999999999999 Q 3.639599786931817 0.8204999999999999 3.639599786931817 0.6884999999999999 Q 3.639599786931817 0.5579999999999998 3.697349786931817 0.4604999999999999 Q 3.755099786931817 0.3629999999999999 3.8548497869318172 0.3104999999999999 Q 3.954599786931817 0.2579999999999999 4.080599786931817 0.2579999999999999 Q 4.206599786931817 0.2579999999999999 4.306349786931817 0.3104999999999999 Q 4.406099786931817 0.3629999999999999 4.463849786931817 0.4604999999999999 Q 4.521599786931817 0.5579999999999998 4.521599786931817 0.6884999999999999 Q 4.521599786931817 0.819 4.463849786931817 0.9172499999999999 Q 4.406099786931817 1.0154999999999998 4.305599786931817 1.0679999999999998 Q 4.205099786931817 1.1204999999999998 4.079099786931817 1.1204999999999998 Q 3.953099786931817 1.1204999999999998 3.853349786931817 1.0679999999999998 M 4.181849786931817 0.8197499999999999 Q 4.223099786931817 0.7739999999999998 4.223099786931817 0.6884999999999999 Q 4.223099786931817 0.6029999999999999 4.181849786931817 0.5579999999999998 Q 4.140599786931817 0.5129999999999999 4.080599786931817 0.5129999999999999 Q 4.020599786931817 0.5129999999999999 3.980099786931817 0.5579999999999998 Q 3.939599786931817 0.6029999999999999 3.939599786931817 0.6884999999999999 Q 3.939599786931817 0.7754999999999999 3.978599786931817 0.8204999999999999 Q 4.017599786931817 0.8654999999999999 4.079099786931817 0.8654999999999999 Q 4.140599786931817 0.8654999999999999 4.181849786931817 0.8197499999999999 M 4.805829279119316 1.0679999999999998 Q 4.706079279119317 1.0154999999999998 4.6490792791193165 0.9179999999999999 Q 4.592079279119316 0.8204999999999999 4.592079279119316 0.6884999999999999 Q 4.592079279119316 0.5579999999999998 4.6498292791193165 0.4604999999999999 Q 4.707579279119317 0.3629999999999999 4.807329279119316 0.3104999999999999 Q 4.9070792791193165 0.2579999999999999 5.033079279119317 0.2579999999999999 Q 5.159079279119316 0.2579999999999999 5.2588292791193165 0.3104999999999999 Q 5.358579279119317 0.3629999999999999 5.416329279119316 0.4604999999999999 Q 5.474079279119317 0.5579999999999998 5.474079279119317 0.6884999999999999 Q 5.474079279119317 0.819 5.416329279119316 0.9172499999999999 Q 5.358579279119317 1.0154999999999998 5.2580792791193165 1.0679999999999998 Q 5.157579279119316 1.1204999999999998 5.031579279119317 1.1204999999999998 Q 4.9055792791193165 1.1204999999999998 4.805829279119316 1.0679999999999998 M 5.134329279119316 0.8197499999999999 Q 5.175579279119317 0.7739999999999998 5.175579279119317 0.6884999999999999 Q 5.175579279119317 0.6029999999999999 5.134329279119316 0.5579999999999998 Q 5.0930792791193165 0.5129999999999999 5.033079279119317 0.5129999999999999 Q 4.973079279119316 0.5129999999999999 4.932579279119317 0.5579999999999998 Q 4.892079279119317 0.6029999999999999 4.892079279119317 0.6884999999999999 Q 4.892079279119317 0.7754999999999999 4.9310792791193165 0.8204999999999999 Q 4.970079279119316 0.8654999999999999 5.031579279119317 0.8654999999999999 Q 5.0930792791193165 0.8654999999999999 5.134329279119316 0.8197499999999999 M 5.984058771306817 0.29174999999999984 Q 6.0470587713068165 0.2579999999999999 6.132558771306816 0.2579999999999999 Q 6.233058771306816 0.2579999999999999 6.314808771306817 0.3104999999999999 Q 6.396558771306816 0.3629999999999999 6.443808771306816 0.4604999999999999 Q 6.491058771306816 0.5579999999999998 6.491058771306816 0.6884999999999999 Q 6.491058771306816 0.819 6.443808771306816 0.9172499999999999 Q 6.396558771306816 1.0154999999999998 6.314808771306817 1.0679999999999998 Q 6.233058771306816 1.1204999999999998 6.132558771306816 1.1204999999999998 Q 6.0470587713068165 1.1204999999999998 5.984058771306817 1.0867499999999999 Q 5.921058771306816 1.053 5.886558771306817 0.9929999999999999 L 5.886558771306817 1.1099999999999999 L 5.592558771306816 1.1099999999999999 L 5.592558771306816 -2.220446049250313e-16 L 5.886558771306817 -2.220446049250313e-16 L 5.886558771306817 0.38549999999999984 Q 5.921058771306816 0.3254999999999999 5.984058771306817 0.29174999999999984 M 6.148308771306817 0.5602499999999999 Q 6.104058771306817 0.5144999999999998 6.039558771306816 0.5144999999999998 Q 5.975058771306816 0.5144999999999998 5.9308087713068165 0.5609999999999998 Q 5.886558771306817 0.6074999999999998 5.886558771306817 0.6884999999999999 Q 5.886558771306817 0.7709999999999999 5.9308087713068165 0.8174999999999999 Q 5.975058771306816 0.8639999999999999 6.039558771306816 0.8639999999999999 Q 6.104058771306817 0.8639999999999999 6.148308771306817 0.8167499999999999 Q 6.192558771306817 0.7694999999999999 6.192558771306817 0.6884999999999999 Q 6.192558771306817 0.6059999999999999 6.148308771306817 0.5602499999999999 M 6.9050477849786915 -2.220446049250313e-16 L 6.9050477849786915 1.1099999999999999 L 6.611047784978691 1.1099999999999999 L 6.611047784978691 -2.220446049250313e-16 L 6.9050477849786915 -2.220446049250313e-16 M 7.871022882634941 0.7484999999999999 L 7.314522882634941 0.7484999999999999 Q 7.3190228826349415 0.8174999999999999 7.352772882634941 0.8512499999999998 Q 7.386522882634941 0.8849999999999999 7.439022882634942 0.8849999999999999 Q 7.512522882634942 0.8849999999999999 7.544022882634941 0.819 L 7.8575228826349415 0.819 Q 7.838022882634942 0.9059999999999999 7.781772882634941 0.9742499999999998 Q 7.725522882634941 1.0425 7.640022882634941 1.0815 Q 7.5545228826349415 1.1204999999999998 7.451022882634941 1.1204999999999998 Q 7.326522882634942 1.1204999999999998 7.229772882634942 1.0679999999999998 Q 7.1330228826349416 1.0154999999999998 7.078272882634941 0.9179999999999999 Q 7.023522882634941 0.8204999999999999 7.023522882634941 0.6884999999999999 Q 7.023522882634941 0.5564999999999999 7.077522882634941 0.4597499999999999 Q 7.1315228826349415 0.3629999999999999 7.228272882634942 0.3104999999999999 Q 7.325022882634942 0.2579999999999999 7.451022882634941 0.2579999999999999 Q 7.5755228826349414 0.2579999999999999 7.6715228826349415 0.30899999999999983 Q 7.767522882634942 0.3599999999999999 7.821522882634941 0.4552499999999998 Q 7.875522882634941 0.5504999999999999 7.875522882634941 0.6794999999999999 Q 7.875522882634941 0.7139999999999999 7.871022882634941 0.7484999999999999 M 7.5755228826349414 0.6059999999999999 Q 7.5755228826349414 0.5519999999999998 7.539522882634941 0.5212499999999999 Q 7.503522882634941 0.4904999999999998 7.449522882634941 0.4904999999999998 Q 7.395522882634942 0.4904999999999998 7.361022882634941 0.5197499999999998 Q 7.326522882634942 0.5489999999999998 7.316022882634941 0.6059999999999999 L 7.5755228826349414 0.6059999999999999" fill="#3a505e" fill-rule="nonzero"></path></g><g><path d=" M 0.11624999999999999 1.9663772727272726 Q 0.08045454545454545 1.9500136363636362 0.06 1.9206954545454542 Q 0.03954545454545454 1.8913772727272724 0.03818181818181818 1.8552409090909088 L 0.08863636363636362 1.8552409090909088 Q 0.09204545454545454 1.8900136363636362 0.11931818181818181 1.916263636363636 Q 0.14659090909090908 1.9425136363636362 0.19909090909090907 1.9425136363636362 Q 0.24749999999999997 1.9425136363636362 0.2757954545454545 1.9176272727272725 Q 0.3040909090909091 1.8927409090909089 0.3040909090909091 1.8545590909090908 Q 0.3040909090909091 1.8238772727272725 0.2884090909090909 1.8051272727272725 Q 0.2727272727272727 1.7863772727272724 0.24954545454545451 1.7771727272727271 Q 0.22636363636363635 1.7679681818181816 0.18545454545454543 1.7570590909090906 Q 0.13772727272727273 1.7441045454545452 0.10977272727272726 1.731831818181818 Q 0.08181818181818182 1.7195590909090908 0.06204545454545454 1.6936499999999999 Q 0.04227272727272727 1.667740909090909 0.04227272727272727 1.623422727272727 Q 0.04227272727272727 1.5866045454545452 0.061363636363636356 1.5576272727272724 Q 0.08045454545454545 1.5286499999999998 0.11522727272727272 1.5122863636363635 Q 0.15 1.4959227272727271 0.19499999999999998 1.4959227272727271 Q 0.2611363636363636 1.4959227272727271 0.30170454545454545 1.5283090909090906 Q 0.34227272727272723 1.5606954545454543 0.3484090909090909 1.6118318181818179 L 0.29659090909090907 1.6118318181818179 Q 0.2918181818181818 1.582513636363636 0.26454545454545453 1.559672727272727 Q 0.23727272727272725 1.536831818181818 0.1909090909090909 1.536831818181818 Q 0.14795454545454545 1.536831818181818 0.11931818181818181 1.559672727272727 Q 0.09068181818181817 1.582513636363636 0.09068181818181817 1.6220590909090906 Q 0.09068181818181817 1.6520590909090906 0.10636363636363635 1.6704681818181815 Q 0.12204545454545454 1.6888772727272725 0.14556818181818182 1.698422727272727 Q 0.16909090909090907 1.7079681818181816 0.2093181818181818 1.7188772727272725 Q 0.2556818181818182 1.731831818181818 0.2843181818181818 1.7444454545454544 Q 0.31295454545454543 1.7570590909090906 0.3327272727272727 1.7829681818181815 Q 0.3525 1.8088772727272726 0.3525 1.852513636363636 Q 0.3525 1.885922727272727 0.3347727272727272 1.915922727272727 Q 0.3170454545454545 1.945922727272727 0.28227272727272723 1.964331818181818 Q 0.24749999999999997 1.982740909090909 0.19909090909090907 1.982740909090909 Q 0.15204545454545454 1.982740909090909 0.11624999999999999 1.9663772727272726 M 0.994446466619318 1.6401272727272724 Q 1.035696466619318 1.6813772727272724 1.035696466619318 1.7597863636363633 L 1.035696466619318 1.9779681818181816 L 0.9886510120738636 1.9779681818181816 L 0.9886510120738636 1.765240909090909 Q 0.9886510120738636 1.7045590909090906 0.9593328302556816 1.6725136363636361 Q 0.9300146484374998 1.6404681818181817 0.8795601029829545 1.6404681818181817 Q 0.8270601029829545 1.6404681818181817 0.795696466619318 1.6752409090909088 Q 0.7643328302556818 1.710013636363636 0.7643328302556818 1.7761499999999997 L 0.7643328302556818 1.9779681818181816 L 0.7172873757102272 1.9779681818181816 L 0.7172873757102272 1.765240909090909 Q 0.7172873757102272 1.7045590909090906 0.6879691938920454 1.6725136363636361 Q 0.6586510120738636 1.6404681818181817 0.6075146484374999 1.6404681818181817 Q 0.5550146484374999 1.6404681818181817 0.5236510120738636 1.6752409090909088 Q 0.4922873757102272 1.710013636363636 0.4922873757102272 1.7761499999999997 L 0.4922873757102272 1.9779681818181816 L 0.4445601029829545 1.9779681818181816 L 0.4445601029829545 1.6056954545454543 L 0.4922873757102272 1.6056954545454543 L 0.4922873757102272 1.6697863636363635 Q 0.5100146484374999 1.6350136363636363 0.5427419211647726 1.6169454545454545 Q 0.5754691938920453 1.5988772727272726 0.6156964666193181 1.5988772727272726 Q 0.6641055575284089 1.5988772727272726 0.7005828302556818 1.6220590909090906 Q 0.7370601029829544 1.6452409090909088 0.7534237393465908 1.690240909090909 Q 0.7684237393465908 1.645922727272727 0.8049010120738636 1.6223999999999998 Q 0.8413782848011362 1.5988772727272726 0.8877419211647726 1.5988772727272726 Q 0.953196466619318 1.5988772727272726 0.994446466619318 1.6401272727272724 M 1.1423823686079546 1.690581818181818 Q 1.1652232776988636 1.6472863636363635 1.2057914595170454 1.623763636363636 Q 1.2463596413352271 1.6002409090909089 1.297496004971591 1.6002409090909089 Q 1.3506778231534091 1.6002409090909089 1.3892005504261364 1.6247863636363635 Q 1.4277232776988635 1.649331818181818 1.4447687322443181 1.687513636363636 L 1.4447687322443181 1.6056954545454543 L 1.4924960049715907 1.6056954545454543 L 1.4924960049715907 1.9779681818181816 L 1.4447687322443181 1.9779681818181816 L 1.4447687322443181 1.8954681818181816 Q 1.4270414595170453 1.9336499999999996 1.3885187322443182 1.9585363636363633 Q 1.349996004971591 1.983422727272727 1.2968141867897727 1.983422727272727 Q 1.2463596413352271 1.983422727272727 1.2057914595170454 1.9595590909090908 Q 1.1652232776988636 1.9356954545454543 1.1423823686079546 1.8920590909090906 Q 1.1195414595170454 1.848422727272727 1.1195414595170454 1.7911499999999998 Q 1.1195414595170454 1.7338772727272724 1.1423823686079546 1.690581818181818 M 1.4263596413352273 1.712740909090909 Q 1.4079505504261363 1.6786499999999998 1.3762460049715908 1.660240909090909 Q 1.3445414595170453 1.641831818181818 1.3063596413352272 1.641831818181818 Q 1.2668141867897726 1.641831818181818 1.2354505504261364 1.6595590909090907 Q 1.2040869140625 1.6772863636363633 1.186018732244318 1.7110363636363635 Q 1.1679505504261363 1.7447863636363634 1.1679505504261363 1.7911499999999998 Q 1.1679505504261363 1.836831818181818 1.186018732244318 1.8712636363636361 Q 1.2040869140625 1.9056954545454543 1.2354505504261364 1.9237636363636361 Q 1.2668141867897726 1.941831818181818 1.3063596413352272 1.941831818181818 Q 1.3445414595170453 1.941831818181818 1.3762460049715908 1.9234227272727271 Q 1.4079505504261363 1.905013636363636 1.4263596413352273 1.8709227272727271 Q 1.4447687322443181 1.836831818181818 1.4447687322443181 1.791831818181818 Q 1.4447687322443181 1.7468318181818179 1.4263596413352273 1.712740909090909 M 1.6973740456321023 1.6179681818181817 Q 1.7297604092684657 1.5988772727272726 1.7768058638139204 1.5988772727272726 L 1.7768058638139204 1.6486499999999997 L 1.763851318359375 1.6486499999999997 Q 1.7120331365411932 1.6486499999999997 1.6806695001775567 1.6766045454545453 Q 1.6493058638139204 1.7045590909090906 1.6493058638139204 1.770013636363636 L 1.6493058638139204 1.9779681818181816 L 1.6015785910866476 1.9779681818181816 L 1.6015785910866476 1.6056954545454543 L 1.6493058638139204 1.6056954545454543 L 1.6493058638139204 1.671831818181818 Q 1.6649876819957385 1.6370590909090907 1.6973740456321023 1.6179681818181817 M 1.91044189453125 1.645922727272727 L 1.91044189453125 1.8770590909090907 Q 1.91044189453125 1.9111499999999997 1.9233964399857955 1.9241045454545451 Q 1.936350985440341 1.9370590909090906 1.9690782581676136 1.9370590909090906 L 2.012714621803977 1.9370590909090906 L 2.012714621803977 1.9779681818181816 L 1.9615782581676136 1.9779681818181816 Q 1.911123712713068 1.9779681818181816 1.8865782581676136 1.9544454545454544 Q 1.862032803622159 1.930922727272727 1.862032803622159 1.8770590909090907 L 1.862032803622159 1.645922727272727 L 1.8102146218039772 1.645922727272727 L 1.8102146218039772 1.6056954545454543 L 1.862032803622159 1.6056954545454543 L 1.862032803622159 1.5122863636363635 L 1.91044189453125 1.5122863636363635 L 1.91044189453125 1.6056954545454543 L 2.012714621803977 1.6056954545454543 L 2.012714621803977 1.645922727272727 L 1.91044189453125 1.645922727272727 M 2.426590576171875 1.8102409090909088 L 2.1177269398082386 1.8102409090909088 Q 2.119772394353693 1.852513636363636 2.138181485262784 1.8825136363636361 Q 2.156590576171875 1.9125136363636361 2.186590576171875 1.9278545454545453 Q 2.216590576171875 1.9431954545454544 2.2520451216264203 1.9431954545454544 Q 2.2984087579900567 1.9431954545454544 2.330113303444602 1.9206954545454542 Q 2.3618178488991477 1.8981954545454542 2.3720451216264204 1.8600136363636361 L 2.4224996670809658 1.8600136363636361 Q 2.408863303444602 1.9145590909090906 2.3642042125355114 1.9489909090909088 Q 2.3195451216264207 1.983422727272727 2.2520451216264203 1.983422727272727 Q 2.1995451216264206 1.983422727272727 2.1579542125355116 1.9598999999999998 Q 2.116363303444602 1.9363772727272726 2.092840576171875 1.8930818181818179 Q 2.0693178488991477 1.8497863636363634 2.0693178488991477 1.791831818181818 Q 2.0693178488991477 1.7338772727272724 2.0924996670809657 1.690240909090909 Q 2.115681485262784 1.6466045454545453 2.157272394353693 1.623422727272727 Q 2.198863303444602 1.6002409090909089 2.2520451216264203 1.6002409090909089 Q 2.3052269398082386 1.6002409090909089 2.3451133034446023 1.623422727272727 Q 2.384999667080966 1.6466045454545453 2.406476939808239 1.6858090909090908 Q 2.4279542125355116 1.7250136363636361 2.4279542125355116 1.772740909090909 Q 2.4279542125355116 1.7972863636363634 2.426590576171875 1.8102409090909088 M 2.362840576171875 1.7004681818181817 Q 2.345454212535511 1.67115 2.3154542125355113 1.6561499999999998 Q 2.2854542125355115 1.6411499999999997 2.249999667080966 1.6411499999999997 Q 2.1968178488991477 1.6411499999999997 2.1593178488991476 1.6752409090909088 Q 2.121817848899148 1.709331818181818 2.1177269398082386 1.7713772727272725 L 2.3795451216264203 1.7713772727272725 Q 2.3802269398082387 1.7297863636363635 2.362840576171875 1.7004681818181817 M 2.611028719815341 1.6179681818181817 Q 2.6434150834517043 1.5988772727272726 2.690460537997159 1.5988772727272726 L 2.690460537997159 1.6486499999999997 L 2.6775059925426135 1.6486499999999997 Q 2.6256878107244317 1.6486499999999997 2.5943241743607954 1.6766045454545453 Q 2.5629605379971587 1.7045590909090906 2.5629605379971587 1.770013636363636 L 2.5629605379971587 1.9779681818181816 L 2.5152332652698863 1.9779681818181816 L 2.5152332652698863 1.6056954545454543 L 2.5629605379971587 1.6056954545454543 L 2.5629605379971587 1.671831818181818 Q 2.5786423561789773 1.6370590909090907 2.611028719815341 1.6179681818181817 M 3.095451216264204 1.645922727272727 L 3.008860307173295 1.645922727272727 L 3.008860307173295 1.9779681818181816 L 2.9611330344460223 1.9779681818181816 L 2.9611330344460223 1.645922727272727 L 2.9093148526278405 1.645922727272727 L 2.9093148526278405 1.6056954545454543 L 2.9611330344460223 1.6056954545454543 L 2.9611330344460223 1.5797863636363634 Q 2.9611330344460223 1.5191045454545453 2.9921557617187493 1.4904681818181817 Q 3.023178488991477 1.461831818181818 3.092723943536931 1.461831818181818 L 3.092723943536931 1.502740909090909 Q 3.0463603071732948 1.502740909090909 3.027610307173295 1.5204681818181816 Q 3.008860307173295 1.5381954545454544 3.008860307173295 1.5797863636363634 L 3.008860307173295 1.6056954545454543 L 3.095451216264204 1.6056954545454543 L 3.095451216264204 1.645922727272727 M 3.169777721058238 1.525240909090909 Q 3.159550448330965 1.5150136363636362 3.159550448330965 1.500013636363636 Q 3.159550448330965 1.4850136363636361 3.169777721058238 1.4751272727272724 Q 3.1800049937855106 1.4652409090909089 3.1943231756036927 1.4652409090909089 Q 3.2086413574218744 1.4652409090909089 3.218868630149147 1.4751272727272724 Q 3.22909590287642 1.4850136363636361 3.22909590287642 1.500013636363636 Q 3.22909590287642 1.5150136363636362 3.218868630149147 1.525240909090909 Q 3.2086413574218744 1.5354681818181817 3.1943231756036927 1.5354681818181817 Q 3.1800049937855106 1.5354681818181817 3.169777721058238 1.525240909090909 M 3.2181868119673287 1.6056954545454543 L 3.2181868119673287 1.9779681818181816 L 3.1704595392400563 1.9779681818181816 L 3.1704595392400563 1.6056954545454543 L 3.2181868119673287 1.6056954545454543 M 3.5215985662286924 1.9779681818181816 L 3.4254622025923287 1.8279681818181817 L 3.332734929865056 1.9779681818181816 L 3.2822803844105106 1.9779681818181816 L 3.4022803844105107 1.791831818181818 L 3.283644020774147 1.6056954545454543 L 3.3375076571377833 1.6056954545454543 L 3.4322803844105105 1.7536499999999997 L 3.5243258389559653 1.6056954545454543 L 3.5740985662286926 1.6056954545454543 L 3.455462202592329 1.7897863636363633 L 3.5754622025923286 1.9779681818181816 L 3.5215985662286924 1.9779681818181816 M 3.975704456676136 1.8102409090909088 L 3.6668408203124994 1.8102409090909088 Q 3.668886274857954 1.852513636363636 3.687295365767045 1.8825136363636361 Q 3.705704456676136 1.9125136363636361 3.7357044566761357 1.9278545454545453 Q 3.765704456676136 1.9431954545454544 3.801159002130681 1.9431954545454544 Q 3.8475226384943175 1.9431954545454544 3.879227183948863 1.9206954545454542 Q 3.9109317294034085 1.8981954545454542 3.9211590021306812 1.8600136363636361 L 3.9716135475852266 1.8600136363636361 Q 3.957977183948863 1.9145590909090906 3.913318093039772 1.9489909090909088 Q 3.8686590021306815 1.983422727272727 3.801159002130681 1.983422727272727 Q 3.7486590021306814 1.983422727272727 3.7070680930397724 1.9598999999999998 Q 3.665477183948863 1.9363772727272726 3.6419544566761357 1.8930818181818179 Q 3.6184317294034085 1.8497863636363634 3.6184317294034085 1.791831818181818 Q 3.6184317294034085 1.7338772727272724 3.6416135475852265 1.690240909090909 Q 3.664795365767045 1.6466045454545453 3.706386274857954 1.623422727272727 Q 3.747977183948863 1.6002409090909089 3.801159002130681 1.6002409090909089 Q 3.8543408203124994 1.6002409090909089 3.894227183948863 1.623422727272727 Q 3.934113547585227 1.6466045454545453 3.9555908203124996 1.6858090909090908 Q 3.9770680930397724 1.7250136363636361 3.9770680930397724 1.772740909090909 Q 3.9770680930397724 1.7972863636363634 3.975704456676136 1.8102409090909088 M 3.9119544566761357 1.7004681818181817 Q 3.894568093039772 1.67115 3.864568093039772 1.6561499999999998 Q 3.8345680930397723 1.6411499999999997 3.7991135475852267 1.6411499999999997 Q 3.7459317294034085 1.6411499999999997 3.7084317294034084 1.6752409090909088 Q 3.6709317294034087 1.709331818181818 3.6668408203124994 1.7713772727272725 L 3.928659002130681 1.7713772727272725 Q 3.9293408203124995 1.7297863636363635 3.9119544566761357 1.7004681818181817 M 4.087869873046874 1.9537636363636361 Q 4.047301691228692 1.9241045454545451 4.042528963955966 1.8729681818181816 L 4.0916198730468745 1.8729681818181816 Q 4.095028963955965 1.9043318181818178 4.121278963955965 1.9237636363636361 Q 4.147528963955965 1.9431954545454544 4.191847145774147 1.9431954545454544 Q 4.230710782137783 1.9431954545454544 4.252869873046874 1.9247863636363634 Q 4.2750289639559655 1.9063772727272725 4.2750289639559655 1.8791045454545452 Q 4.2750289639559655 1.8600136363636361 4.262756236683238 1.847740909090909 Q 4.25048350941051 1.8354681818181815 4.23173350941051 1.8283090909090907 Q 4.212983509410511 1.8211499999999998 4.180938054865056 1.8129681818181815 Q 4.139347145774147 1.8020590909090908 4.113438054865056 1.7911499999999998 Q 4.0875289639559655 1.7802409090909088 4.069460782137783 1.758763636363636 Q 4.051392600319602 1.7372863636363634 4.051392600319602 1.7011499999999997 Q 4.051392600319602 1.6738772727272724 4.067756236683238 1.6506954545454544 Q 4.084119873046874 1.6275136363636362 4.114119873046874 1.6138772727272725 Q 4.144119873046875 1.6002409090909089 4.182301691228693 1.6002409090909089 Q 4.242301691228692 1.6002409090909089 4.2791198730468745 1.630581818181818 Q 4.315938054865056 1.6609227272727272 4.318665327592329 1.7141045454545452 L 4.270938054865056 1.7141045454545452 Q 4.268892600319601 1.6813772727272724 4.245369873046874 1.6612636363636362 Q 4.221847145774147 1.6411499999999997 4.180938054865056 1.6411499999999997 Q 4.144801691228692 1.6411499999999997 4.122301691228692 1.6581954545454543 Q 4.099801691228692 1.6752409090909088 4.099801691228692 1.7004681818181817 Q 4.099801691228692 1.7222863636363634 4.113097145774147 1.7362636363636361 Q 4.126392600319601 1.7502409090909088 4.146165327592329 1.7580818181818179 Q 4.165938054865056 1.7659227272727271 4.199347145774147 1.7754681818181817 Q 4.2395744185014195 1.7863772727272724 4.263438054865056 1.7966045454545452 Q 4.287301691228692 1.806831818181818 4.304347145774147 1.8266045454545452 Q 4.3213926003196015 1.8463772727272725 4.32207441850142 1.8791045454545452 Q 4.32207441850142 1.9091045454545452 4.305710782137783 1.9326272727272724 Q 4.289347145774147 1.9561499999999998 4.260028963955965 1.9697863636363633 Q 4.230710782137783 1.983422727272727 4.192528963955965 1.983422727272727 Q 4.128438054865056 1.983422727272727 4.087869873046874 1.9537636363636361 M 4.455717440518465 1.8988772727272725 L 4.384808349609374 2.077513636363636 L 4.352081076882101 2.077513636363636 L 4.4025356223366465 1.8988772727272725 L 4.455717440518465 1.8988772727272725 M 4.863417746803976 1.645922727272727 L 4.776826837713067 1.645922727272727 L 4.776826837713067 1.9779681818181816 L 4.729099564985794 1.9779681818181816 L 4.729099564985794 1.645922727272727 L 4.677281383167612 1.645922727272727 L 4.677281383167612 1.6056954545454543 L 4.729099564985794 1.6056954545454543 L 4.729099564985794 1.5797863636363634 Q 4.729099564985794 1.5191045454545453 4.760122292258521 1.4904681818181817 Q 4.791145019531249 1.461831818181818 4.860690474076703 1.461831818181818 L 4.860690474076703 1.502740909090909 Q 4.814326837713067 1.502740909090909 4.7955768377130665 1.5204681818181816 Q 4.776826837713067 1.5381954545454544 4.776826837713067 1.5797863636363634 L 4.776826837713067 1.6056954545454543 L 4.863417746803976 1.6056954545454543 L 4.863417746803976 1.645922727272727 M 4.939448797052556 1.690581818181818 Q 4.962289706143465 1.6472863636363635 5.002857887961647 1.623763636363636 Q 5.043426069779828 1.6002409090909089 5.0945624334161925 1.6002409090909089 Q 5.14774425159801 1.6002409090909089 5.186266978870738 1.6247863636363635 Q 5.224789706143465 1.649331818181818 5.24183516068892 1.687513636363636 L 5.24183516068892 1.6056954545454543 L 5.289562433416192 1.6056954545454543 L 5.289562433416192 1.9779681818181816 L 5.24183516068892 1.9779681818181816 L 5.24183516068892 1.8954681818181816 Q 5.2241078879616465 1.9336499999999996 5.18558516068892 1.9585363636363633 Q 5.147062433416192 1.983422727272727 5.093880615234374 1.983422727272727 Q 5.043426069779828 1.983422727272727 5.002857887961647 1.9595590909090908 Q 4.962289706143465 1.9356954545454543 4.939448797052556 1.8920590909090906 Q 4.916607887961647 1.848422727272727 4.916607887961647 1.7911499999999998 Q 4.916607887961647 1.7338772727272724 4.939448797052556 1.690581818181818 M 5.223426069779829 1.712740909090909 Q 5.205016978870738 1.6786499999999998 5.173312433416192 1.660240909090909 Q 5.141607887961647 1.641831818181818 5.103426069779829 1.641831818181818 Q 5.063880615234374 1.641831818181818 5.032516978870738 1.6595590909090907 Q 5.001153342507101 1.6772863636363633 4.98308516068892 1.7110363636363635 Q 4.965016978870738 1.7447863636363634 4.965016978870738 1.7911499999999998 Q 4.965016978870738 1.836831818181818 4.98308516068892 1.8712636363636361 Q 5.001153342507101 1.9056954545454543 5.032516978870738 1.9237636363636361 Q 5.063880615234374 1.941831818181818 5.103426069779829 1.941831818181818 Q 5.141607887961647 1.941831818181818 5.173312433416192 1.9234227272727271 Q 5.205016978870738 1.905013636363636 5.223426069779829 1.8709227272727271 Q 5.24183516068892 1.836831818181818 5.24183516068892 1.791831818181818 Q 5.24183516068892 1.7468318181818179 5.223426069779829 1.712740909090909 M 5.422167746803977 1.9537636363636361 Q 5.381599564985795 1.9241045454545451 5.376826837713068 1.8729681818181816 L 5.425917746803977 1.8729681818181816 Q 5.4293268377130675 1.9043318181818178 5.455576837713068 1.9237636363636361 Q 5.481826837713068 1.9431954545454544 5.526145019531249 1.9431954545454544 Q 5.565008655894886 1.9431954545454544 5.587167746803977 1.9247863636363634 Q 5.609326837713068 1.9063772727272725 5.609326837713068 1.8791045454545452 Q 5.609326837713068 1.8600136363636361 5.59705411044034 1.847740909090909 Q 5.584781383167613 1.8354681818181815 5.566031383167613 1.8283090909090907 Q 5.547281383167613 1.8211499999999998 5.515235928622158 1.8129681818181815 Q 5.47364501953125 1.8020590909090908 5.4477359286221585 1.7911499999999998 Q 5.421826837713068 1.7802409090909088 5.403758655894886 1.758763636363636 Q 5.385690474076704 1.7372863636363634 5.385690474076704 1.7011499999999997 Q 5.385690474076704 1.6738772727272724 5.40205411044034 1.6506954545454544 Q 5.418417746803977 1.6275136363636362 5.448417746803977 1.6138772727272725 Q 5.478417746803977 1.6002409090909089 5.516599564985795 1.6002409090909089 Q 5.576599564985795 1.6002409090909089 5.613417746803977 1.630581818181818 Q 5.650235928622158 1.6609227272727272 5.652963201349431 1.7141045454545452 L 5.605235928622158 1.7141045454545452 Q 5.603190474076704 1.6813772727272724 5.579667746803977 1.6612636363636362 Q 5.556145019531249 1.6411499999999997 5.515235928622158 1.6411499999999997 Q 5.479099564985795 1.6411499999999997 5.456599564985795 1.6581954545454543 Q 5.434099564985795 1.6752409090909088 5.434099564985795 1.7004681818181817 Q 5.434099564985795 1.7222863636363634 5.44739501953125 1.7362636363636361 Q 5.460690474076704 1.7502409090909088 5.480463201349432 1.7580818181818179 Q 5.500235928622159 1.7659227272727271 5.533645019531249 1.7754681818181817 Q 5.573872292258522 1.7863772727272724 5.597735928622159 1.7966045454545452 Q 5.621599564985795 1.806831818181818 5.63864501953125 1.8266045454545452 Q 5.655690474076704 1.8463772727272725 5.6563722922585224 1.8791045454545452 Q 5.6563722922585224 1.9091045454545452 5.640008655894886 1.9326272727272724 Q 5.623645019531249 1.9561499999999998 5.5943268377130675 1.9697863636363633 Q 5.565008655894886 1.983422727272727 5.526826837713068 1.983422727272727 Q 5.462735928622158 1.983422727272727 5.422167746803977 1.9537636363636361 M 5.808424405184658 1.645922727272727 L 5.808424405184658 1.8770590909090907 Q 5.808424405184658 1.9111499999999997 5.821378950639204 1.9241045454545451 Q 5.834333496093749 1.9370590909090906 5.8670607688210215 1.9370590909090906 L 5.910697132457385 1.9370590909090906 L 5.910697132457385 1.9779681818181816 L 5.859560768821022 1.9779681818181816 Q 5.809106223366476 1.9779681818181816 5.784560768821022 1.9544454545454544 Q 5.7600153142755675 1.930922727272727 5.7600153142755675 1.8770590909090907 L 5.7600153142755675 1.645922727272727 L 5.708197132457386 1.645922727272727 L 5.708197132457386 1.6056954545454543 L 5.7600153142755675 1.6056954545454543 L 5.7600153142755675 1.5122863636363635 L 5.808424405184658 1.5122863636363635 L 5.808424405184658 1.6056954545454543 L 5.910697132457385 1.6056954545454543 L 5.910697132457385 1.645922727272727 L 5.808424405184658 1.645922727272727 M 6.324573086825283 1.8102409090909088 L 6.015709450461647 1.8102409090909088 Q 6.017754905007101 1.852513636363636 6.036163995916192 1.8825136363636361 Q 6.054573086825283 1.9125136363636361 6.084573086825284 1.9278545454545453 Q 6.114573086825283 1.9431954545454544 6.150027632279829 1.9431954545454544 Q 6.196391268643465 1.9431954545454544 6.228095814098011 1.9206954545454542 Q 6.259800359552556 1.8981954545454542 6.270027632279829 1.8600136363636361 L 6.320482177734374 1.8600136363636361 Q 6.30684581409801 1.9145590909090906 6.262186723188919 1.9489909090909088 Q 6.217527632279829 1.983422727272727 6.150027632279829 1.983422727272727 Q 6.097527632279829 1.983422727272727 6.055936723188919 1.9598999999999998 Q 6.014345814098011 1.9363772727272726 5.990823086825284 1.8930818181818179 Q 5.967300359552556 1.8497863636363634 5.967300359552556 1.791831818181818 Q 5.967300359552556 1.7338772727272724 5.990482177734374 1.690240909090909 Q 6.013663995916192 1.6466045454545453 6.055254905007102 1.623422727272727 Q 6.09684581409801 1.6002409090909089 6.150027632279829 1.6002409090909089 Q 6.203209450461647 1.6002409090909089 6.243095814098011 1.623422727272727 Q 6.282982177734374 1.6466045454545453 6.304459450461647 1.6858090909090908 Q 6.32593672318892 1.7250136363636361 6.32593672318892 1.772740909090909 Q 6.32593672318892 1.7972863636363634 6.324573086825283 1.8102409090909088 M 6.260823086825283 1.7004681818181817 Q 6.243436723188919 1.67115 6.21343672318892 1.6561499999999998 Q 6.18343672318892 1.6411499999999997 6.147982177734374 1.6411499999999997 Q 6.094800359552556 1.6411499999999997 6.057300359552556 1.6752409090909088 Q 6.019800359552556 1.709331818181818 6.015709450461647 1.7713772727272725 L 6.277527632279829 1.7713772727272725 Q 6.278209450461647 1.7297863636363635 6.260823086825283 1.7004681818181817 M 6.509011230468749 1.6179681818181817 Q 6.541397594105113 1.5988772727272726 6.588443048650567 1.5988772727272726 L 6.588443048650567 1.6486499999999997 L 6.575488503196022 1.6486499999999997 Q 6.52367032137784 1.6486499999999997 6.492306685014204 1.6766045454545453 Q 6.4609430486505675 1.7045590909090906 6.4609430486505675 1.770013636363636 L 6.4609430486505675 1.9779681818181816 L 6.413215775923295 1.9779681818181816 L 6.413215775923295 1.6056954545454543 L 6.4609430486505675 1.6056954545454543 L 6.4609430486505675 1.671831818181818 Q 6.476624866832386 1.6370590909090907 6.509011230468749 1.6179681818181817 M 6.942638272372158 1.6179681818181817 Q 6.975024636008522 1.5988772727272726 7.022070090553976 1.5988772727272726 L 7.022070090553976 1.6486499999999997 L 7.009115545099431 1.6486499999999997 Q 6.957297363281249 1.6486499999999997 6.925933726917613 1.6766045454545453 Q 6.894570090553977 1.7045590909090906 6.894570090553977 1.770013636363636 L 6.894570090553977 1.9779681818181816 L 6.846842817826704 1.9779681818181816 L 6.846842817826704 1.6056954545454543 L 6.894570090553977 1.6056954545454543 L 6.894570090553977 1.671831818181818 Q 6.910251908735795 1.6370590909090907 6.942638272372158 1.6179681818181817 M 7.429115212180396 1.8102409090909088 L 7.12025157581676 1.8102409090909088 Q 7.122297030362215 1.852513636363636 7.140706121271306 1.8825136363636361 Q 7.159115212180397 1.9125136363636361 7.189115212180397 1.9278545454545453 Q 7.219115212180396 1.9431954545454544 7.254569757634942 1.9431954545454544 Q 7.300933393998578 1.9431954545454544 7.332637939453124 1.9206954545454542 Q 7.364342484907669 1.8981954545454542 7.3745697576349425 1.8600136363636361 L 7.425024303089487 1.8600136363636361 Q 7.411387939453124 1.9145590909090906 7.3667288485440325 1.9489909090909088 Q 7.322069757634942 1.983422727272727 7.254569757634942 1.983422727272727 Q 7.202069757634942 1.983422727272727 7.160478848544033 1.9598999999999998 Q 7.118887939453124 1.9363772727272726 7.095365212180397 1.8930818181818179 Q 7.07184248490767 1.8497863636363634 7.07184248490767 1.791831818181818 Q 7.07184248490767 1.7338772727272724 7.095024303089487 1.690240909090909 Q 7.118206121271306 1.6466045454545453 7.159797030362215 1.623422727272727 Q 7.201387939453124 1.6002409090909089 7.254569757634942 1.6002409090909089 Q 7.30775157581676 1.6002409090909089 7.347637939453124 1.623422727272727 Q 7.387524303089488 1.6466045454545453 7.40900157581676 1.6858090909090908 Q 7.430478848544033 1.7250136363636361 7.430478848544033 1.772740909090909 Q 7.430478848544033 1.7972863636363634 7.429115212180396 1.8102409090909088 M 7.3653652121803965 1.7004681818181817 Q 7.347978848544033 1.67115 7.317978848544033 1.6561499999999998 Q 7.287978848544033 1.6411499999999997 7.252524303089487 1.6411499999999997 Q 7.199342484907669 1.6411499999999997 7.16184248490767 1.6752409090909088 Q 7.124342484907669 1.709331818181818 7.12025157581676 1.7713772727272725 L 7.382069757634942 1.7713772727272725 Q 7.38275157581676 1.7297863636363635 7.3653652121803965 1.7004681818181817 M 7.541280628551135 1.9537636363636361 Q 7.500712446732953 1.9241045454545451 7.495939719460226 1.8729681818181816 L 7.545030628551135 1.8729681818181816 Q 7.548439719460226 1.9043318181818178 7.574689719460226 1.9237636363636361 Q 7.600939719460226 1.9431954545454544 7.645257901278407 1.9431954545454544 Q 7.684121537642044 1.9431954545454544 7.706280628551135 1.9247863636363634 Q 7.728439719460226 1.9063772727272725 7.728439719460226 1.8791045454545452 Q 7.728439719460226 1.8600136363636361 7.716166992187499 1.847740909090909 Q 7.703894264914771 1.8354681818181815 7.685144264914771 1.8283090909090907 Q 7.666394264914771 1.8211499999999998 7.634348810369317 1.8129681818181815 Q 7.592757901278408 1.8020590909090908 7.566848810369317 1.7911499999999998 Q 7.540939719460226 1.7802409090909088 7.522871537642044 1.758763636363636 Q 7.504803355823863 1.7372863636363634 7.504803355823863 1.7011499999999997 Q 7.504803355823863 1.6738772727272724 7.521166992187498 1.6506954545454544 Q 7.537530628551135 1.6275136363636362 7.567530628551135 1.6138772727272725 Q 7.5975306285511355 1.6002409090909089 7.635712446732954 1.6002409090909089 Q 7.695712446732953 1.6002409090909089 7.732530628551135 1.630581818181818 Q 7.7693488103693165 1.6609227272727272 7.772076083096589 1.7141045454545452 L 7.7243488103693165 1.7141045454545452 Q 7.722303355823862 1.6813772727272724 7.698780628551135 1.6612636363636362 Q 7.675257901278408 1.6411499999999997 7.634348810369317 1.6411499999999997 Q 7.598212446732953 1.6411499999999997 7.575712446732953 1.6581954545454543 Q 7.553212446732953 1.6752409090909088 7.553212446732953 1.7004681818181817 Q 7.553212446732953 1.7222863636363634 7.566507901278408 1.7362636363636361 Q 7.579803355823862 1.7502409090909088 7.59957608309659 1.7580818181818179 Q 7.619348810369317 1.7659227272727271 7.652757901278408 1.7754681818181817 Q 7.69298517400568 1.7863772727272724 7.716848810369317 1.7966045454545452 Q 7.740712446732953 1.806831818181818 7.757757901278408 1.8266045454545452 Q 7.774803355823862 1.8463772727272725 7.775485174005681 1.8791045454545452 Q 7.775485174005681 1.9091045454545452 7.759121537642044 1.9326272727272724 Q 7.742757901278408 1.9561499999999998 7.713439719460226 1.9697863636363633 Q 7.684121537642044 1.983422727272727 7.645939719460226 1.983422727272727 Q 7.5818488103693165 1.983422727272727 7.541280628551135 1.9537636363636361 M 8.187991832386363 1.6056954545454543 L 8.187991832386363 1.9779681818181816 L 8.140264559659089 1.9779681818181816 L 8.140264559659089 1.9125136363636361 Q 8.123900923295453 1.9472863636363633 8.089810014204543 1.9656954545454544 Q 8.055719105113635 1.9841045454545452 8.013446377840907 1.9841045454545452 Q 7.946628196022726 1.9841045454545452 7.904355468749999 1.9428545454545452 Q 7.862082741477271 1.9016045454545452 7.862082741477271 1.8231954545454543 L 7.862082741477271 1.6056954545454543 L 7.909128196022726 1.6056954545454543 L 7.909128196022726 1.817740909090909 Q 7.909128196022726 1.878422727272727 7.939469105113635 1.9104681818181817 Q 7.969810014204544 1.9425136363636362 8.022310014204544 1.9425136363636362 Q 8.07617365056818 1.9425136363636362 8.108219105113635 1.908422727272727 Q 8.140264559659089 1.874331818181818 8.140264559659089 1.8081954545454544 L 8.140264559659089 1.6056954545454543 L 8.187991832386363 1.6056954545454543 M 8.344807017933237 1.4734227272727272 L 8.344807017933237 1.9779681818181816 L 8.297079745205965 1.9779681818181816 L 8.297079745205965 1.4734227272727272 L 8.344807017933237 1.4734227272727272 M 8.515264226740056 1.645922727272727 L 8.515264226740056 1.8770590909090907 Q 8.515264226740056 1.9111499999999997 8.5282187721946 1.9241045454545451 Q 8.541173317649147 1.9370590909090906 8.57390059037642 1.9370590909090906 L 8.617536954012783 1.9370590909090906 L 8.617536954012783 1.9779681818181816 L 8.56640059037642 1.9779681818181816 Q 8.515946044921874 1.9779681818181816 8.491400590376418 1.9544454545454544 Q 8.466855135830965 1.930922727272727 8.466855135830965 1.8770590909090907 L 8.466855135830965 1.645922727272727 L 8.415036954012782 1.645922727272727 L 8.415036954012782 1.6056954545454543 L 8.466855135830965 1.6056954545454543 L 8.466855135830965 1.5122863636363635 L 8.515264226740056 1.5122863636363635 L 8.515264226740056 1.6056954545454543 L 8.617536954012783 1.6056954545454543 L 8.617536954012783 1.645922727272727 L 8.515264226740056 1.645922727272727 M 8.719481090198862 1.9537636363636361 Q 8.67891290838068 1.9241045454545451 8.674140181107953 1.8729681818181816 L 8.723231090198862 1.8729681818181816 Q 8.726640181107953 1.9043318181818178 8.752890181107952 1.9237636363636361 Q 8.779140181107953 1.9431954545454544 8.823458362926134 1.9431954545454544 Q 8.86232199928977 1.9431954545454544 8.884481090198861 1.9247863636363634 Q 8.906640181107953 1.9063772727272725 8.906640181107953 1.8791045454545452 Q 8.906640181107953 1.8600136363636361 8.894367453835226 1.847740909090909 Q 8.882094726562498 1.8354681818181815 8.863344726562499 1.8283090909090907 Q 8.844594726562498 1.8211499999999998 8.812549272017044 1.8129681818181815 Q 8.770958362926134 1.8020590909090908 8.745049272017043 1.7911499999999998 Q 8.719140181107953 1.7802409090909088 8.701071999289772 1.758763636363636 Q 8.683003817471588 1.7372863636363634 8.683003817471588 1.7011499999999997 Q 8.683003817471588 1.6738772727272724 8.699367453835226 1.6506954545454544 Q 8.715731090198862 1.6275136363636362 8.745731090198861 1.6138772727272725 Q 8.775731090198862 1.6002409090909089 8.81391290838068 1.6002409090909089 Q 8.87391290838068 1.6002409090909089 8.910731090198862 1.630581818181818 Q 8.947549272017044 1.6609227272727272 8.950276544744316 1.7141045454545452 L 8.902549272017044 1.7141045454545452 Q 8.90050381747159 1.6813772727272724 8.876981090198862 1.6612636363636362 Q 8.853458362926135 1.6411499999999997 8.812549272017044 1.6411499999999997 Q 8.77641290838068 1.6411499999999997 8.75391290838068 1.6581954545454543 Q 8.73141290838068 1.6752409090909088 8.73141290838068 1.7004681818181817 Q 8.73141290838068 1.7222863636363634 8.744708362926135 1.7362636363636361 Q 8.75800381747159 1.7502409090909088 8.777776544744317 1.7580818181818179 Q 8.797549272017044 1.7659227272727271 8.830958362926134 1.7754681818181817 Q 8.871185635653408 1.7863772727272724 8.895049272017044 1.7966045454545452 Q 8.91891290838068 1.806831818181818 8.935958362926135 1.8266045454545452 Q 8.95300381747159 1.8463772727272725 8.953685635653407 1.8791045454545452 Q 8.953685635653407 1.9091045454545452 8.937321999289772 1.9326272727272724 Q 8.920958362926134 1.9561499999999998 8.891640181107952 1.9697863636363633 Q 8.86232199928977 1.983422727272727 8.824140181107953 1.983422727272727 Q 8.760049272017044 1.983422727272727 8.719481090198862 1.9537636363636361" fill="#3f6072" fill-rule="nonzero"></path></g></g><defs><clipPath id="SvgjsClipPath113241"><path d=" M 1.812712700829012 -6.168402386360054 h 5.363721437830611 v 5.918402386360054 h -5.363721437830611 Z"></path></clipPath><clipPath id="SvgjsClipPath113239dab47b2e-deb3-4e01-8b43-1a73d74d5f94"><path d=" M 1.8127127008290116 -6.168402386360054 L 7.176434138659623 -6.168402386360054 L 7.176434138659623 -0.25 L 1.8127127008290111 -0.25 Z"></path></clipPath></defs></svg>
